<svg width="391" height="240" viewBox="0 0 391 240" fill="none" xmlns="http://www.w3.org/2000/svg">
<path d="M232.649 59.0153L294.709 31.3438V31.3365L363.405 0.704891L363.361 0.617188L294.577 29.2608C294.519 28.9903 294.453 28.8295 294.365 28.7564C294.19 28.6103 293.517 28.5372 292.355 28.5372C292.297 28.5372 288.482 28.8295 280.91 29.4069C266.811 30.5179 257.141 31.0734 251.901 31.0734C233.431 31.0734 219.486 30.4594 210.05 29.2315C209.348 29.1804 208.939 29.1511 208.822 29.1511C207.835 29.1511 207.134 31.3292 206.724 35.6999C206.49 38.4407 206.293 41.1743 206.118 43.9151C206.001 44.7849 205.474 47.2626 204.539 51.3409C203.728 55.0685 203.318 57.3123 203.318 58.0724C203.318 58.6498 203.786 58.9422 204.714 58.9422C210.291 58.9422 217.388 58.5694 226.005 57.8166C228.11 57.6339 230.303 57.422 232.59 57.1954C232.612 57.8093 232.627 58.416 232.649 59.0153Z" fill="#2A3A48"/>
<path d="M368.894 15.3242L233.197 80.1176C233.226 81.7329 233.248 83.1654 233.27 84.3933C233.285 85.6724 233.292 86.7395 233.292 87.6019C233.292 94.4796 233 104.785 232.415 118.533C231.83 132.281 231.538 142.594 231.538 149.464C231.538 150.977 232.357 151.884 233.987 152.176C237.012 152.637 242.289 152.87 249.803 152.87C256.556 152.87 261.687 152.637 265.181 152.176C266.635 152.001 267.454 151.854 267.629 151.738C268.156 151.445 268.411 150.751 268.411 149.64C268.411 142.77 268.134 132.427 267.586 118.621C267.03 104.814 266.752 94.4796 266.752 87.6019C266.752 83.2677 266.847 76.4705 267.045 67.1955L285.58 57.7524H285.587C289.827 57.9716 292.494 58.074 293.576 58.074C294.862 58.074 295.498 57.4893 295.498 56.3198C295.498 55.4355 295.425 54.2733 295.272 52.8189L368.894 15.3242Z" fill="#2185C7"/>
<path d="M74.4609 141.791L369.138 2.05274C371.172 1.08869 373.603 1.94237 374.586 3.96621C375.601 6.05363 374.683 8.56716 372.562 9.50927L74.5019 141.873L74.4609 141.791Z" fill="#4E5C6B"/>
<path d="M22.4757 152.232L180.633 81.694C180.35 80.0714 179.999 78.4612 179.58 76.8628C178.576 72.9342 177.22 69.1036 175.531 65.417C171.283 55.9791 165.489 48.638 158.151 43.3953C150.354 37.8062 139.547 34.3126 125.729 32.9144C120.432 32.3881 108.811 32.125 90.8651 32.125C81.4315 32.125 74.6466 32.3684 70.5098 32.8559C68.8214 33.0898 67.9736 33.8134 67.9736 35.0486C67.9736 41.685 68.217 51.6887 68.7045 65.0589C69.192 78.4291 69.4354 88.462 69.4354 95.1569C69.4354 101.408 69.192 110.72 68.7045 123.092L18.8212 143.863C17.111 144.573 15.9971 146.244 16 148.095C15.9993 148.754 16.1418 149.404 16.4166 150.003C17.4815 152.284 20.1865 153.279 22.4757 152.232ZM101.938 93.7098C101.938 90.2746 101.997 85.105 102.113 78.2003C102.23 71.2956 102.287 66.126 102.282 62.6908C102.282 60.303 106.767 59.1095 115.737 59.1095C125.522 59.1095 133.386 62.3422 139.33 68.8084C144.622 74.4121 147.546 81.4769 148.101 90.0042L102.15 109.139V108.963C102.005 102.176 101.934 97.0916 101.938 93.7098Z" fill="#2A3A48"/>
<path d="M74.9242 154.918L32.8615 175.003C30.6023 176.081 29.6266 178.772 30.6688 181.047L30.72 181.164C31.7652 183.47 34.4811 184.491 36.7864 183.445C36.8478 183.417 36.9084 183.388 36.9691 183.357L91.9393 155.364C93.6277 155.364 95.0748 155.408 96.2589 155.408C111.461 155.408 120.751 155.349 124.128 155.232C141.718 154.657 155.378 148.744 165.109 137.494C171.91 129.852 176.809 120.711 179.405 110.816C179.953 108.726 180.399 106.584 180.742 104.406L74.9315 154.933L74.9242 154.918Z" fill="#2286C7"/>
<path d="M12.8409 230.598H2.52841V201.507H12.9261C15.8523 201.507 18.3712 202.089 20.483 203.254C22.5947 204.409 24.2188 206.071 25.3551 208.24C26.5009 210.408 27.0739 213.003 27.0739 216.024C27.0739 219.054 26.5009 221.658 25.3551 223.836C24.2188 226.014 22.5852 227.686 20.4545 228.85C18.3333 230.015 15.7955 230.598 12.8409 230.598ZM8.67898 225.328H12.5852C14.4034 225.328 15.9328 225.006 17.1733 224.362C18.4233 223.708 19.3608 222.7 19.9858 221.336C20.6203 219.963 20.9375 218.192 20.9375 216.024C20.9375 213.874 20.6203 212.118 19.9858 210.754C19.3608 209.39 18.428 208.386 17.1875 207.743C15.947 207.099 14.4176 206.777 12.5994 206.777H8.67898V225.328ZM31.5163 230.598V208.779H37.5675V230.598H31.5163ZM34.5561 205.967C33.6565 205.967 32.8847 205.669 32.2408 205.072C31.6063 204.466 31.2891 203.742 31.2891 202.899C31.2891 202.065 31.6063 201.35 32.2408 200.754C32.8847 200.148 33.6565 199.845 34.5561 199.845C35.4557 199.845 36.2228 200.148 36.8572 200.754C37.5012 201.35 37.8232 202.065 37.8232 202.899C37.8232 203.742 37.5012 204.466 36.8572 205.072C36.2228 205.669 35.4557 205.967 34.5561 205.967ZM48.4659 217.984V230.598H42.4148V208.779H48.1818V212.629H48.4375C48.9205 211.36 49.7301 210.356 50.8665 209.618C52.0028 208.869 53.3807 208.495 55 208.495C56.5152 208.495 57.8362 208.827 58.9631 209.49C60.09 210.153 60.9659 211.1 61.5909 212.331C62.2159 213.552 62.5284 215.011 62.5284 216.706V230.598H56.4773V217.785C56.4867 216.45 56.1458 215.408 55.4545 214.66C54.7633 213.903 53.8116 213.524 52.5994 213.524C51.785 213.524 51.0653 213.699 50.4403 214.049C49.8248 214.4 49.3419 214.911 48.9915 215.583C48.6506 216.246 48.4754 217.047 48.4659 217.984ZM77.2408 231.024C74.9964 231.024 73.0646 230.569 71.4453 229.66C69.8355 228.742 68.5949 227.444 67.7237 225.768C66.8525 224.083 66.4169 222.089 66.4169 219.788C66.4169 217.544 66.8525 215.574 67.7237 213.879C68.5949 212.184 69.8213 210.863 71.4027 209.916C72.9936 208.969 74.8591 208.495 76.9993 208.495C78.4387 208.495 79.7786 208.727 81.0192 209.191C82.2692 209.646 83.3582 210.333 84.2862 211.251C85.2237 212.17 85.9529 213.325 86.4737 214.717C86.9946 216.1 87.255 217.719 87.255 219.575V221.237H68.8317V217.487H81.5589C81.5589 216.616 81.3696 215.844 80.9908 215.172C80.612 214.499 80.0864 213.974 79.4141 213.595C78.7512 213.207 77.9794 213.012 77.0987 213.012C76.1802 213.012 75.3658 213.225 74.6555 213.652C73.9548 214.068 73.4055 214.632 73.0078 215.342C72.6101 216.043 72.4065 216.824 72.397 217.686V221.251C72.397 222.331 72.5959 223.263 72.9936 224.049C73.4008 224.835 73.9737 225.441 74.7124 225.868C75.451 226.294 76.3269 226.507 77.3402 226.507C78.0125 226.507 78.6281 226.412 79.1868 226.223C79.7455 226.033 80.2237 225.749 80.6214 225.37C81.0192 224.992 81.3222 224.528 81.5305 223.978L87.1271 224.348C86.843 225.692 86.2607 226.867 85.38 227.87C84.5088 228.865 83.3819 229.641 81.9993 230.2C80.6262 230.749 79.04 231.024 77.2408 231.024ZM91.2038 230.598V208.779H97.0703V212.586H97.2976C97.6953 211.232 98.3629 210.209 99.3004 209.518C100.238 208.817 101.317 208.467 102.539 208.467C102.842 208.467 103.169 208.486 103.519 208.524C103.87 208.562 104.177 208.614 104.442 208.68V214.049C104.158 213.964 103.765 213.888 103.263 213.822C102.762 213.756 102.302 213.723 101.886 213.723C100.996 213.723 100.2 213.917 99.4993 214.305C98.808 214.684 98.2588 215.214 97.8516 215.896C97.4538 216.578 97.255 217.364 97.255 218.254V230.598H91.2038ZM116.413 231.024C114.207 231.024 112.299 230.555 110.689 229.618C109.089 228.671 107.853 227.354 106.982 225.669C106.11 223.974 105.675 222.009 105.675 219.774C105.675 217.52 106.11 215.55 106.982 213.865C107.853 212.17 109.089 210.853 110.689 209.916C112.299 208.969 114.207 208.495 116.413 208.495C118.62 208.495 120.523 208.969 122.124 209.916C123.733 210.853 124.974 212.17 125.845 213.865C126.716 215.55 127.152 217.52 127.152 219.774C127.152 222.009 126.716 223.974 125.845 225.669C124.974 227.354 123.733 228.671 122.124 229.618C120.523 230.555 118.62 231.024 116.413 231.024ZM116.442 226.336C117.446 226.336 118.284 226.052 118.956 225.484C119.628 224.906 120.135 224.12 120.476 223.126C120.826 222.132 121.001 221 121.001 219.731C121.001 218.462 120.826 217.331 120.476 216.336C120.135 215.342 119.628 214.556 118.956 213.978C118.284 213.401 117.446 213.112 116.442 213.112C115.429 213.112 114.576 213.401 113.885 213.978C113.203 214.556 112.687 215.342 112.337 216.336C111.996 217.331 111.825 218.462 111.825 219.731C111.825 221 111.996 222.132 112.337 223.126C112.687 224.12 113.203 224.906 113.885 225.484C114.576 226.052 115.429 226.336 116.442 226.336ZM141.854 204.632V201.507H163.672V204.632H154.524V230.598H151.001V204.632H141.854ZM174.638 231.052C172.536 231.052 170.722 230.588 169.197 229.66C167.682 228.723 166.513 227.416 165.689 225.74C164.875 224.054 164.467 222.094 164.467 219.859C164.467 217.624 164.875 215.654 165.689 213.95C166.513 212.236 167.659 210.901 169.126 209.944C170.604 208.978 172.327 208.495 174.297 208.495C175.433 208.495 176.555 208.685 177.663 209.064C178.771 209.442 179.78 210.058 180.689 210.91C181.598 211.753 182.322 212.87 182.862 214.262C183.402 215.654 183.672 217.368 183.672 219.404V220.825H166.854V217.927H180.263C180.263 216.696 180.017 215.598 179.524 214.632C179.041 213.666 178.35 212.904 177.45 212.345C176.56 211.786 175.509 211.507 174.297 211.507C172.962 211.507 171.806 211.838 170.831 212.501C169.865 213.154 169.122 214.007 168.601 215.058C168.08 216.109 167.82 217.236 167.82 218.439V220.37C167.82 222.018 168.104 223.415 168.672 224.561C169.25 225.697 170.05 226.564 171.072 227.16C172.095 227.747 173.284 228.041 174.638 228.041C175.518 228.041 176.314 227.918 177.024 227.672C177.744 227.416 178.364 227.037 178.885 226.535C179.406 226.024 179.808 225.389 180.092 224.632L183.331 225.541C182.99 226.639 182.417 227.605 181.612 228.439C180.807 229.262 179.813 229.906 178.629 230.37C177.446 230.825 176.115 231.052 174.638 231.052ZM197.635 231.052C195.589 231.052 193.828 230.569 192.351 229.603C190.874 228.637 189.737 227.307 188.942 225.612C188.146 223.917 187.749 221.98 187.749 219.802C187.749 217.586 188.156 215.631 188.97 213.936C189.794 212.231 190.94 210.901 192.408 209.944C193.885 208.978 195.608 208.495 197.578 208.495C199.112 208.495 200.495 208.779 201.726 209.348C202.957 209.916 203.965 210.711 204.751 211.734C205.537 212.757 206.025 213.95 206.214 215.314H202.862C202.607 214.319 202.038 213.439 201.158 212.672C200.286 211.895 199.112 211.507 197.635 211.507C196.328 211.507 195.182 211.848 194.197 212.529C193.222 213.202 192.46 214.154 191.911 215.385C191.371 216.606 191.101 218.041 191.101 219.689C191.101 221.374 191.366 222.842 191.896 224.092C192.436 225.342 193.194 226.313 194.169 227.004C195.154 227.695 196.309 228.041 197.635 228.041C198.506 228.041 199.297 227.889 200.007 227.586C200.717 227.283 201.319 226.848 201.811 226.279C202.304 225.711 202.654 225.029 202.862 224.234H206.214C206.025 225.522 205.556 226.682 204.808 227.714C204.07 228.737 203.089 229.551 201.868 230.157C200.656 230.754 199.245 231.052 197.635 231.052ZM214.467 217.473V230.598H211.115V201.507H214.467V212.189H214.751C215.263 211.062 216.03 210.167 217.053 209.504C218.085 208.832 219.458 208.495 221.172 208.495C222.659 208.495 223.961 208.794 225.078 209.39C226.196 209.977 227.062 210.882 227.678 212.103C228.303 213.315 228.615 214.859 228.615 216.734V230.598H225.263V216.961C225.263 215.228 224.813 213.888 223.913 212.941C223.023 211.985 221.787 211.507 220.206 211.507C219.107 211.507 218.123 211.739 217.251 212.203C216.39 212.667 215.708 213.344 215.206 214.234C214.714 215.124 214.467 216.204 214.467 217.473ZM238.1 217.473V230.598H234.748V208.779H237.987V212.189H238.271C238.782 211.081 239.558 210.19 240.6 209.518C241.642 208.836 242.987 208.495 244.634 208.495C246.112 208.495 247.404 208.798 248.512 209.404C249.62 210.001 250.482 210.91 251.097 212.132C251.713 213.344 252.021 214.878 252.021 216.734V230.598H248.668V216.961C248.668 215.247 248.223 213.912 247.333 212.956C246.443 211.99 245.221 211.507 243.668 211.507C242.598 211.507 241.642 211.739 240.799 212.203C239.966 212.667 239.308 213.344 238.825 214.234C238.342 215.124 238.1 216.204 238.1 217.473ZM267.01 231.052C265.04 231.052 263.312 230.583 261.825 229.646C260.348 228.708 259.193 227.397 258.359 225.711C257.536 224.026 257.124 222.056 257.124 219.802C257.124 217.529 257.536 215.546 258.359 213.85C259.193 212.155 260.348 210.839 261.825 209.902C263.312 208.964 265.04 208.495 267.01 208.495C268.98 208.495 270.703 208.964 272.18 209.902C273.667 210.839 274.822 212.155 275.646 213.85C276.48 215.546 276.896 217.529 276.896 219.802C276.896 222.056 276.48 224.026 275.646 225.711C274.822 227.397 273.667 228.708 272.18 229.646C270.703 230.583 268.98 231.052 267.01 231.052ZM267.01 228.041C268.506 228.041 269.737 227.657 270.703 226.89C271.669 226.123 272.384 225.115 272.848 223.865C273.312 222.615 273.544 221.261 273.544 219.802C273.544 218.344 273.312 216.985 272.848 215.725C272.384 214.466 271.669 213.448 270.703 212.672C269.737 211.895 268.506 211.507 267.01 211.507C265.514 211.507 264.283 211.895 263.317 212.672C262.351 213.448 261.636 214.466 261.172 215.725C260.708 216.985 260.476 218.344 260.476 219.802C260.476 221.261 260.708 222.615 261.172 223.865C261.636 225.115 262.351 226.123 263.317 226.89C264.283 227.657 265.514 228.041 267.01 228.041ZM285.366 201.507V230.598H282.013V201.507H285.366ZM300.369 231.052C298.4 231.052 296.671 230.583 295.185 229.646C293.707 228.708 292.552 227.397 291.719 225.711C290.895 224.026 290.483 222.056 290.483 219.802C290.483 217.529 290.895 215.546 291.719 213.85C292.552 212.155 293.707 210.839 295.185 209.902C296.671 208.964 298.4 208.495 300.369 208.495C302.339 208.495 304.063 208.964 305.54 209.902C307.027 210.839 308.182 212.155 309.006 213.85C309.839 215.546 310.256 217.529 310.256 219.802C310.256 222.056 309.839 224.026 309.006 225.711C308.182 227.397 307.027 228.708 305.54 229.646C304.063 230.583 302.339 231.052 300.369 231.052ZM300.369 228.041C301.866 228.041 303.097 227.657 304.062 226.89C305.028 226.123 305.743 225.115 306.207 223.865C306.671 222.615 306.903 221.261 306.903 219.802C306.903 218.344 306.671 216.985 306.207 215.725C305.743 214.466 305.028 213.448 304.062 212.672C303.097 211.895 301.866 211.507 300.369 211.507C298.873 211.507 297.642 211.895 296.676 212.672C295.71 213.448 294.995 214.466 294.531 215.725C294.067 216.985 293.835 218.344 293.835 219.802C293.835 221.261 294.067 222.615 294.531 223.865C294.995 225.115 295.71 226.123 296.676 226.89C297.642 227.657 298.873 228.041 300.369 228.041ZM324.18 239.234C322.56 239.234 321.168 239.026 320.004 238.609C318.839 238.202 317.868 237.662 317.092 236.99C316.325 236.327 315.714 235.617 315.259 234.859L317.93 232.984C318.233 233.382 318.616 233.836 319.08 234.348C319.544 234.868 320.179 235.318 320.984 235.697C321.798 236.085 322.863 236.279 324.18 236.279C325.941 236.279 327.395 235.853 328.54 235.001C329.686 234.149 330.259 232.814 330.259 230.995V226.564H329.975C329.729 226.961 329.379 227.454 328.924 228.041C328.479 228.618 327.835 229.135 326.992 229.589C326.159 230.034 325.032 230.257 323.612 230.257C321.85 230.257 320.269 229.84 318.867 229.007C317.475 228.173 316.372 226.961 315.558 225.37C314.753 223.779 314.35 221.848 314.35 219.575C314.35 217.34 314.743 215.394 315.529 213.737C316.315 212.07 317.409 210.782 318.81 209.873C320.212 208.955 321.831 208.495 323.668 208.495C325.089 208.495 326.216 208.732 327.049 209.206C327.892 209.67 328.536 210.2 328.981 210.797C329.435 211.384 329.786 211.867 330.032 212.245H330.373V208.779H333.612V231.223C333.612 233.098 333.185 234.622 332.333 235.797C331.49 236.98 330.354 237.847 328.924 238.396C327.504 238.955 325.922 239.234 324.18 239.234ZM324.066 227.245C325.411 227.245 326.547 226.938 327.475 226.322C328.403 225.707 329.109 224.821 329.592 223.666C330.075 222.511 330.316 221.128 330.316 219.518C330.316 217.946 330.079 216.559 329.606 215.356C329.132 214.154 328.432 213.211 327.504 212.529C326.576 211.848 325.43 211.507 324.066 211.507C322.646 211.507 321.462 211.867 320.515 212.586C319.577 213.306 318.872 214.272 318.398 215.484C317.934 216.696 317.702 218.041 317.702 219.518C317.702 221.033 317.939 222.373 318.413 223.538C318.896 224.693 319.606 225.602 320.543 226.265C321.49 226.919 322.665 227.245 324.066 227.245ZM339.748 230.598V208.779H343.1V230.598H339.748ZM341.452 205.143C340.799 205.143 340.236 204.921 339.762 204.475C339.298 204.03 339.066 203.495 339.066 202.87C339.066 202.245 339.298 201.71 339.762 201.265C340.236 200.82 340.799 200.598 341.452 200.598C342.106 200.598 342.665 200.82 343.129 201.265C343.602 201.71 343.839 202.245 343.839 202.87C343.839 203.495 343.602 204.03 343.129 204.475C342.665 204.921 342.106 205.143 341.452 205.143ZM358.388 231.052C356.286 231.052 354.472 230.588 352.947 229.66C351.432 228.723 350.263 227.416 349.439 225.74C348.625 224.054 348.217 222.094 348.217 219.859C348.217 217.624 348.625 215.654 349.439 213.95C350.263 212.236 351.409 210.901 352.876 209.944C354.354 208.978 356.077 208.495 358.047 208.495C359.183 208.495 360.305 208.685 361.413 209.064C362.521 209.442 363.53 210.058 364.439 210.91C365.348 211.753 366.072 212.87 366.612 214.262C367.152 215.654 367.422 217.368 367.422 219.404V220.825H350.604V217.927H364.013C364.013 216.696 363.767 215.598 363.274 214.632C362.791 213.666 362.1 212.904 361.2 212.345C360.31 211.786 359.259 211.507 358.047 211.507C356.712 211.507 355.556 211.838 354.581 212.501C353.615 213.154 352.872 214.007 352.351 215.058C351.83 216.109 351.57 217.236 351.57 218.439V220.37C351.57 222.018 351.854 223.415 352.422 224.561C353 225.697 353.8 226.564 354.822 227.16C355.845 227.747 357.034 228.041 358.388 228.041C359.268 228.041 360.064 227.918 360.774 227.672C361.494 227.416 362.114 227.037 362.635 226.535C363.156 226.024 363.558 225.389 363.842 224.632L367.081 225.541C366.74 226.639 366.167 227.605 365.362 228.439C364.557 229.262 363.563 229.906 362.379 230.37C361.196 230.825 359.865 231.052 358.388 231.052ZM387.976 213.666L384.964 214.518C384.775 214.016 384.496 213.529 384.126 213.055C383.767 212.572 383.274 212.174 382.649 211.862C382.024 211.549 381.224 211.393 380.249 211.393C378.913 211.393 377.801 211.701 376.911 212.316C376.03 212.922 375.589 213.694 375.589 214.632C375.589 215.465 375.893 216.123 376.499 216.606C377.105 217.089 378.052 217.492 379.339 217.814L382.578 218.609C384.529 219.083 385.982 219.807 386.939 220.782C387.895 221.748 388.374 222.993 388.374 224.518C388.374 225.768 388.014 226.886 387.294 227.87C386.584 228.855 385.589 229.632 384.311 230.2C383.033 230.768 381.546 231.052 379.851 231.052C377.625 231.052 375.784 230.569 374.325 229.603C372.867 228.637 371.944 227.226 371.555 225.37L374.737 224.575C375.04 225.749 375.613 226.63 376.456 227.217C377.308 227.804 378.421 228.098 379.794 228.098C381.357 228.098 382.597 227.766 383.516 227.103C384.444 226.431 384.908 225.626 384.908 224.689C384.908 223.931 384.643 223.297 384.112 222.785C383.582 222.264 382.768 221.876 381.669 221.62L378.033 220.768C376.035 220.295 374.567 219.561 373.629 218.566C372.701 217.563 372.237 216.308 372.237 214.802C372.237 213.571 372.583 212.482 373.274 211.535C373.975 210.588 374.927 209.845 376.129 209.305C377.341 208.765 378.714 208.495 380.249 208.495C382.408 208.495 384.103 208.969 385.334 209.916C386.574 210.863 387.455 212.113 387.976 213.666Z" fill="black"/>
</svg>
