<svg width="360" height="240" viewBox="0 0 360 240" fill="none" xmlns="http://www.w3.org/2000/svg">
<path d="M217.217 59.0153L279.277 31.3438V31.3365L347.973 0.704891L347.929 0.617188L279.145 29.2608C279.087 28.9903 279.021 28.8295 278.933 28.7564C278.758 28.6103 278.085 28.5372 276.923 28.5372C276.865 28.5372 273.049 28.8295 265.477 29.4069C251.379 30.5179 241.709 31.0734 236.468 31.0734C217.999 31.0734 204.054 30.4594 194.618 29.2315C193.916 29.1804 193.507 29.1511 193.39 29.1511C192.403 29.1511 191.701 31.3292 191.292 35.6999C191.058 38.4407 190.861 41.1743 190.686 43.9151C190.569 44.7849 190.042 47.2626 189.107 51.3409C188.296 55.0685 187.886 57.3123 187.886 58.0724C187.886 58.6498 188.354 58.9422 189.282 58.9422C194.859 58.9422 201.956 58.5694 210.573 57.8166C212.678 57.6339 214.871 57.422 217.158 57.1954C217.18 57.8093 217.195 58.416 217.217 59.0153Z" fill="#2A3A48"/>
<path d="M353.462 15.3242L217.765 80.1176C217.794 81.7329 217.816 83.1654 217.838 84.3933C217.853 85.6724 217.86 86.7395 217.86 87.6019C217.86 94.4796 217.568 104.785 216.983 118.533C216.398 132.281 216.106 142.594 216.106 149.464C216.106 150.977 216.925 151.884 218.554 152.176C221.58 152.637 226.857 152.87 234.371 152.87C241.124 152.87 246.255 152.637 249.749 152.176C251.203 152.001 252.022 151.854 252.197 151.738C252.724 151.445 252.979 150.751 252.979 149.64C252.979 142.77 252.702 132.427 252.153 118.621C251.598 104.814 251.32 94.4796 251.32 87.6019C251.32 83.2677 251.415 76.4705 251.613 67.1955L270.148 57.7524H270.155C274.394 57.9716 277.062 58.074 278.144 58.074C279.43 58.074 280.066 57.4893 280.066 56.3198C280.066 55.4355 279.993 54.2733 279.84 52.8189L353.462 15.3242Z" fill="#2185C7"/>
<path d="M59.0288 141.791L353.706 2.05274C355.739 1.08869 358.17 1.94237 359.154 3.96621C360.169 6.05363 359.251 8.56716 357.13 9.50927L59.0697 141.873L59.0288 141.791Z" fill="#4E5C6B"/>
<path d="M7.04356 152.232L165.201 81.694C164.918 80.0714 164.567 78.4612 164.148 76.8628C163.143 72.9342 161.788 69.1036 160.099 65.417C155.851 55.9791 150.057 48.638 142.719 43.3953C134.922 37.8062 124.115 34.3126 110.296 32.9144C105 32.3881 93.3785 32.125 75.4329 32.125C65.9993 32.125 59.2145 32.3684 55.0776 32.8559C53.3893 33.0898 52.5415 33.8134 52.5415 35.0486C52.5415 41.685 52.7848 51.6887 53.2724 65.0589C53.7599 78.4291 54.0032 88.462 54.0032 95.1569C54.0032 101.408 53.7599 110.72 53.2724 123.092L3.38911 143.863C1.67883 144.573 0.564953 146.244 0.567877 148.095C0.567146 148.754 0.709669 149.404 0.984484 150.003C2.04939 152.284 4.75441 153.279 7.04356 152.232ZM86.5059 93.7098C86.5059 90.2746 86.5644 85.105 86.6813 78.2003C86.7983 71.2956 86.8546 66.126 86.8494 62.6908C86.8494 60.303 91.3349 59.1095 100.305 59.1095C110.09 59.1095 117.954 62.3422 123.898 68.8084C129.19 74.4121 132.113 81.4769 132.669 90.0042L86.7179 109.139V108.963C86.5724 102.176 86.5015 97.0916 86.5059 93.7098Z" fill="#2A3A48"/>
<path d="M59.4921 154.918L17.4294 175.003C15.1702 176.081 14.1944 178.772 15.2367 181.047L15.2879 181.164C16.333 183.47 19.049 184.491 21.3542 183.445C21.4156 183.417 21.4763 183.388 21.537 183.357L76.5072 155.364C78.1955 155.364 79.6427 155.408 80.8268 155.408C96.0293 155.408 105.319 155.349 108.696 155.232C126.286 154.657 139.946 148.744 149.677 137.494C156.478 129.852 161.377 120.711 163.973 110.816C164.521 108.726 164.967 106.584 165.31 104.406L59.4994 154.933L59.4921 154.918Z" fill="#2286C7"/>
<path d="M13.4088 230.598H3.09628V201.507H13.494C16.4201 201.507 18.9391 202.089 21.0508 203.254C23.1626 204.409 24.7866 206.071 25.923 208.24C27.0688 210.408 27.6417 213.003 27.6417 216.024C27.6417 219.054 27.0688 221.658 25.923 223.836C24.7866 226.014 23.1531 227.686 21.0224 228.85C18.9012 230.015 16.3633 230.598 13.4088 230.598ZM9.24685 225.328H13.1531C14.9713 225.328 16.5006 225.006 17.7412 224.362C18.9912 223.708 19.9287 222.7 20.5537 221.336C21.1881 219.963 21.5054 218.192 21.5054 216.024C21.5054 213.874 21.1881 212.118 20.5537 210.754C19.9287 209.39 18.9959 208.386 17.7554 207.743C16.5148 207.099 14.9855 206.777 13.1673 206.777H9.24685V225.328ZM32.0842 230.598V208.779H38.1353V230.598H32.0842ZM35.124 205.967C34.2244 205.967 33.4526 205.669 32.8086 205.072C32.1742 204.466 31.8569 203.742 31.8569 202.899C31.8569 202.065 32.1742 201.35 32.8086 200.754C33.4526 200.148 34.2244 199.845 35.124 199.845C36.0236 199.845 36.7906 200.148 37.4251 200.754C38.0691 201.35 38.391 202.065 38.391 202.899C38.391 203.742 38.0691 204.466 37.4251 205.072C36.7906 205.669 36.0236 205.967 35.124 205.967ZM49.0338 217.984V230.598H42.9826V208.779H48.7497V212.629H49.0054C49.4883 211.36 50.298 210.356 51.4343 209.618C52.5707 208.869 53.9486 208.495 55.5679 208.495C57.083 208.495 58.404 208.827 59.5309 209.49C60.6578 210.153 61.5338 211.1 62.1588 212.331C62.7838 213.552 63.0963 215.011 63.0963 216.706V230.598H57.0451V217.785C57.0546 216.45 56.7137 215.408 56.0224 214.66C55.3311 213.903 54.3794 213.524 53.1673 213.524C52.3529 213.524 51.6332 213.699 51.0082 214.049C50.3927 214.4 49.9097 214.911 49.5593 215.583C49.2184 216.246 49.0433 217.047 49.0338 217.984ZM77.8086 231.024C75.5643 231.024 73.6325 230.569 72.0132 229.66C70.4033 228.742 69.1628 227.444 68.2916 225.768C67.4204 224.083 66.9848 222.089 66.9848 219.788C66.9848 217.544 67.4204 215.574 68.2916 213.879C69.1628 212.184 70.3891 210.863 71.9706 209.916C73.5615 208.969 75.427 208.495 77.5672 208.495C79.0066 208.495 80.3465 208.727 81.587 209.191C82.837 209.646 83.9261 210.333 84.8541 211.251C85.7916 212.17 86.5208 213.325 87.0416 214.717C87.5624 216.1 87.8228 217.719 87.8228 219.575V221.237H69.3995V217.487H82.1268C82.1268 216.616 81.9374 215.844 81.5586 215.172C81.1799 214.499 80.6543 213.974 79.9819 213.595C79.3191 213.207 78.5473 213.012 77.6666 213.012C76.748 213.012 75.9336 213.225 75.2234 213.652C74.5227 214.068 73.9734 214.632 73.5757 215.342C73.178 216.043 72.9744 216.824 72.9649 217.686V221.251C72.9649 222.331 73.1638 223.263 73.5615 224.049C73.9687 224.835 74.5416 225.441 75.2802 225.868C76.0189 226.294 76.8948 226.507 77.9081 226.507C78.5804 226.507 79.1959 226.412 79.7547 226.223C80.3134 226.033 80.7916 225.749 81.1893 225.37C81.587 224.992 81.8901 224.528 82.0984 223.978L87.695 224.348C87.4109 225.692 86.8285 226.867 85.9478 227.87C85.0766 228.865 83.9497 229.641 82.5672 230.2C81.1941 230.749 79.6079 231.024 77.8086 231.024ZM91.7717 230.598V208.779H97.6382V212.586H97.8655C98.2632 211.232 98.9308 210.209 99.8683 209.518C100.806 208.817 101.885 208.467 103.107 208.467C103.41 208.467 103.737 208.486 104.087 208.524C104.437 208.562 104.745 208.614 105.01 208.68V214.049C104.726 213.964 104.333 213.888 103.831 213.822C103.329 213.756 102.87 213.723 102.454 213.723C101.563 213.723 100.768 213.917 100.067 214.305C99.3759 214.684 98.8266 215.214 98.4194 215.896C98.0217 216.578 97.8228 217.364 97.8228 218.254V230.598H91.7717ZM116.981 231.024C114.775 231.024 112.867 230.555 111.257 229.618C109.656 228.671 108.421 227.354 107.549 225.669C106.678 223.974 106.243 222.009 106.243 219.774C106.243 217.52 106.678 215.55 107.549 213.865C108.421 212.17 109.656 210.853 111.257 209.916C112.867 208.969 114.775 208.495 116.981 208.495C119.188 208.495 121.091 208.969 122.691 209.916C124.301 210.853 125.542 212.17 126.413 213.865C127.284 215.55 127.72 217.52 127.72 219.774C127.72 222.009 127.284 223.974 126.413 225.669C125.542 227.354 124.301 228.671 122.691 229.618C121.091 230.555 119.188 231.024 116.981 231.024ZM117.01 226.336C118.013 226.336 118.851 226.052 119.524 225.484C120.196 224.906 120.703 224.12 121.044 223.126C121.394 222.132 121.569 221 121.569 219.731C121.569 218.462 121.394 217.331 121.044 216.336C120.703 215.342 120.196 214.556 119.524 213.978C118.851 213.401 118.013 213.112 117.01 213.112C115.996 213.112 115.144 213.401 114.453 213.978C113.771 214.556 113.255 215.342 112.905 216.336C112.564 217.331 112.393 218.462 112.393 219.731C112.393 221 112.564 222.132 112.905 223.126C113.255 224.12 113.771 224.906 114.453 225.484C115.144 226.052 115.996 226.336 117.01 226.336ZM142.422 204.632V201.507H164.24V204.632H155.092V230.598H151.569V204.632H142.422ZM175.206 231.052C173.103 231.052 171.29 230.588 169.765 229.66C168.25 228.723 167.081 227.416 166.257 225.74C165.442 224.054 165.035 222.094 165.035 219.859C165.035 217.624 165.442 215.654 166.257 213.95C167.081 212.236 168.226 210.901 169.694 209.944C171.172 208.978 172.895 208.495 174.865 208.495C176.001 208.495 177.123 208.685 178.231 209.064C179.339 209.442 180.348 210.058 181.257 210.91C182.166 211.753 182.89 212.87 183.43 214.262C183.97 215.654 184.24 217.368 184.24 219.404V220.825H167.422V217.927H180.831C180.831 216.696 180.584 215.598 180.092 214.632C179.609 213.666 178.918 212.904 178.018 212.345C177.128 211.786 176.077 211.507 174.865 211.507C173.53 211.507 172.374 211.838 171.399 212.501C170.433 213.154 169.69 214.007 169.169 215.058C168.648 216.109 168.387 217.236 168.387 218.439V220.37C168.387 222.018 168.672 223.415 169.24 224.561C169.817 225.697 170.618 226.564 171.64 227.16C172.663 227.747 173.851 228.041 175.206 228.041C176.086 228.041 176.882 227.918 177.592 227.672C178.312 227.416 178.932 227.037 179.453 226.535C179.974 226.024 180.376 225.389 180.66 224.632L183.899 225.541C183.558 226.639 182.985 227.605 182.18 228.439C181.375 229.262 180.381 229.906 179.197 230.37C178.013 230.825 176.683 231.052 175.206 231.052ZM198.203 231.052C196.157 231.052 194.396 230.569 192.919 229.603C191.441 228.637 190.305 227.307 189.51 225.612C188.714 223.917 188.316 221.98 188.316 219.802C188.316 217.586 188.724 215.631 189.538 213.936C190.362 212.231 191.508 210.901 192.976 209.944C194.453 208.978 196.176 208.495 198.146 208.495C199.68 208.495 201.063 208.779 202.294 209.348C203.525 209.916 204.533 210.711 205.319 211.734C206.105 212.757 206.593 213.95 206.782 215.314H203.43C203.174 214.319 202.606 213.439 201.726 212.672C200.854 211.895 199.68 211.507 198.203 211.507C196.896 211.507 195.75 211.848 194.765 212.529C193.79 213.202 193.028 214.154 192.478 215.385C191.939 216.606 191.669 218.041 191.669 219.689C191.669 221.374 191.934 222.842 192.464 224.092C193.004 225.342 193.762 226.313 194.737 227.004C195.722 227.695 196.877 228.041 198.203 228.041C199.074 228.041 199.865 227.889 200.575 227.586C201.285 227.283 201.887 226.848 202.379 226.279C202.871 225.711 203.222 225.029 203.43 224.234H206.782C206.593 225.522 206.124 226.682 205.376 227.714C204.637 228.737 203.657 229.551 202.436 230.157C201.224 230.754 199.813 231.052 198.203 231.052ZM215.035 217.473V230.598H211.683V201.507H215.035V212.189H215.319C215.831 211.062 216.598 210.167 217.62 209.504C218.653 208.832 220.026 208.495 221.74 208.495C223.226 208.495 224.529 208.794 225.646 209.39C226.763 209.977 227.63 210.882 228.245 212.103C228.87 213.315 229.183 214.859 229.183 216.734V230.598H225.831V216.961C225.831 215.228 225.381 213.888 224.481 212.941C223.591 211.985 222.355 211.507 220.774 211.507C219.675 211.507 218.691 211.739 217.819 212.203C216.958 212.667 216.276 213.344 215.774 214.234C215.281 215.124 215.035 216.204 215.035 217.473ZM238.668 217.473V230.598H235.316V208.779H238.554V212.189H238.838C239.35 211.081 240.126 210.19 241.168 209.518C242.21 208.836 243.554 208.495 245.202 208.495C246.679 208.495 247.972 208.798 249.08 209.404C250.188 210.001 251.05 210.91 251.665 212.132C252.281 213.344 252.588 214.878 252.588 216.734V230.598H249.236V216.961C249.236 215.247 248.791 213.912 247.901 212.956C247.011 211.99 245.789 211.507 244.236 211.507C243.166 211.507 242.21 211.739 241.367 212.203C240.534 212.667 239.875 213.344 239.392 214.234C238.909 215.124 238.668 216.204 238.668 217.473ZM267.578 231.052C265.608 231.052 263.88 230.583 262.393 229.646C260.916 228.708 259.761 227.397 258.927 225.711C258.103 224.026 257.691 222.056 257.691 219.802C257.691 217.529 258.103 215.546 258.927 213.85C259.761 212.155 260.916 210.839 262.393 209.902C263.88 208.964 265.608 208.495 267.578 208.495C269.548 208.495 271.271 208.964 272.748 209.902C274.235 210.839 275.39 212.155 276.214 213.85C277.048 215.546 277.464 217.529 277.464 219.802C277.464 222.056 277.048 224.026 276.214 225.711C275.39 227.397 274.235 228.708 272.748 229.646C271.271 230.583 269.548 231.052 267.578 231.052ZM267.578 228.041C269.074 228.041 270.305 227.657 271.271 226.89C272.237 226.123 272.952 225.115 273.416 223.865C273.88 222.615 274.112 221.261 274.112 219.802C274.112 218.344 273.88 216.985 273.416 215.725C272.952 214.466 272.237 213.448 271.271 212.672C270.305 211.895 269.074 211.507 267.578 211.507C266.082 211.507 264.851 211.895 263.885 212.672C262.919 213.448 262.204 214.466 261.74 215.725C261.276 216.985 261.044 218.344 261.044 219.802C261.044 221.261 261.276 222.615 261.74 223.865C262.204 225.115 262.919 226.123 263.885 226.89C264.851 227.657 266.082 228.041 267.578 228.041ZM285.934 201.507V230.598H282.581V201.507H285.934ZM300.937 231.052C298.967 231.052 297.239 230.583 295.753 229.646C294.275 228.708 293.12 227.397 292.287 225.711C291.463 224.026 291.051 222.056 291.051 219.802C291.051 217.529 291.463 215.546 292.287 213.85C293.12 212.155 294.275 210.839 295.753 209.902C297.239 208.964 298.967 208.495 300.937 208.495C302.907 208.495 304.63 208.964 306.108 209.902C307.594 210.839 308.75 212.155 309.574 213.85C310.407 215.546 310.824 217.529 310.824 219.802C310.824 222.056 310.407 224.026 309.574 225.711C308.75 227.397 307.594 228.708 306.108 229.646C304.63 230.583 302.907 231.052 300.937 231.052ZM300.937 228.041C302.433 228.041 303.664 227.657 304.63 226.89C305.596 226.123 306.311 225.115 306.775 223.865C307.239 222.615 307.471 221.261 307.471 219.802C307.471 218.344 307.239 216.985 306.775 215.725C306.311 214.466 305.596 213.448 304.63 212.672C303.664 211.895 302.433 211.507 300.937 211.507C299.441 211.507 298.21 211.895 297.244 212.672C296.278 213.448 295.563 214.466 295.099 215.725C294.635 216.985 294.403 218.344 294.403 219.802C294.403 221.261 294.635 222.615 295.099 223.865C295.563 225.115 296.278 226.123 297.244 226.89C298.21 227.657 299.441 228.041 300.937 228.041ZM324.748 239.234C323.128 239.234 321.736 239.026 320.571 238.609C319.407 238.202 318.436 237.662 317.659 236.99C316.892 236.327 316.282 235.617 315.827 234.859L318.498 232.984C318.801 233.382 319.184 233.836 319.648 234.348C320.112 234.868 320.747 235.318 321.552 235.697C322.366 236.085 323.431 236.279 324.748 236.279C326.509 236.279 327.963 235.853 329.108 235.001C330.254 234.149 330.827 232.814 330.827 230.995V226.564H330.543C330.297 226.961 329.946 227.454 329.492 228.041C329.047 228.618 328.403 229.135 327.56 229.589C326.727 230.034 325.6 230.257 324.179 230.257C322.418 230.257 320.837 229.84 319.435 229.007C318.043 228.173 316.94 226.961 316.125 225.37C315.32 223.779 314.918 221.848 314.918 219.575C314.918 217.34 315.311 215.394 316.097 213.737C316.883 212.07 317.977 210.782 319.378 209.873C320.78 208.955 322.399 208.495 324.236 208.495C325.657 208.495 326.784 208.732 327.617 209.206C328.46 209.67 329.104 210.2 329.549 210.797C330.003 211.384 330.354 211.867 330.6 212.245H330.941V208.779H334.179V231.223C334.179 233.098 333.753 234.622 332.901 235.797C332.058 236.98 330.922 237.847 329.492 238.396C328.071 238.955 326.49 239.234 324.748 239.234ZM324.634 227.245C325.979 227.245 327.115 226.938 328.043 226.322C328.971 225.707 329.677 224.821 330.159 223.666C330.642 222.511 330.884 221.128 330.884 219.518C330.884 217.946 330.647 216.559 330.174 215.356C329.7 214.154 328.999 213.211 328.071 212.529C327.143 211.848 325.998 211.507 324.634 211.507C323.213 211.507 322.03 211.867 321.083 212.586C320.145 213.306 319.44 214.272 318.966 215.484C318.502 216.696 318.27 218.041 318.27 219.518C318.27 221.033 318.507 222.373 318.981 223.538C319.463 224.693 320.174 225.602 321.111 226.265C322.058 226.919 323.232 227.245 324.634 227.245ZM342.475 238.779C341.907 238.779 341.4 238.732 340.955 238.637C340.51 238.552 340.202 238.467 340.032 238.382L340.884 235.427C341.698 235.636 342.418 235.711 343.043 235.654C343.668 235.598 344.222 235.318 344.705 234.816C345.197 234.324 345.647 233.524 346.054 232.416L346.679 230.711L338.611 208.779H342.248L348.27 226.166H348.498L354.52 208.779H358.157L348.895 233.779C348.479 234.906 347.963 235.839 347.347 236.578C346.731 237.326 346.016 237.88 345.202 238.24C344.397 238.6 343.488 238.779 342.475 238.779Z" fill="black"/>
</svg>
